Coordinates
version=1
nRows=10
nColumns=46
inDegrees=yes

Units are S.I. units (second, meters, Newtons, ...)
Angles are in degrees.

endheader
time	pelvis_tilt	pelvis_list	pelvis_rotation	pelvis_tx	pelvis_ty	pelvis_tz	bb_angle	bb_tx	bb_ty	bb_tz	hip_flexion_r	hip_adduction_r	hip_rotation_r	knee_angle_r	knee_angle_r_beta	ankle_angle_r	subtalar_angle_r	mtp_angle_r	crank_angle_r	hip_flexion_l	hip_adduction_l	hip_rotation_l	knee_angle_l	knee_angle_l_beta	ankle_angle_l	subtalar_angle_l	mtp_angle_l	crank_angle_l	lumbar_extension	lumbar_bending	lumbar_rotation	arm_flex_r	arm_add_r	arm_rot_r	elbow_flex_r	pro_sup_r	wrist_flex_r	wrist_dev_r	arm_flex_l	arm_add_l	arm_rot_l	elbow_flex_l	pro_sup_l	wrist_flex_l	wrist_dev_l
      5.00500000	    -15.69087998	     -4.49739843	     -2.67149270	      0.17275260	      1.15551434	     -0.25556084	      0.00000000	      0.50000000	      0.00000000	      0.25000000	     92.17225781	     -4.44012711	     -3.39244250	    112.03158722	      1.95532006	    -10.15742735	    -12.64425210	      0.00000000	      0.00000000	     36.69187451	     -9.13171588	     -4.15709927	     34.15529973	      0.59612244	      6.43071251	     -1.54158091	      0.00000000	      0.00000000	    -64.92752080	      7.33152481	     10.66964965	     89.76260943	    -12.56868289	     27.68157064	     61.00587755	     27.91956452	      0.00000000	      0.00000000	     89.37133348	    -14.04501553	     31.12700292	     53.83374411	     30.54811144	      0.00000000	      0.00000000
      5.01000000	    -16.03426173	     -4.43164411	     -3.09918917	      0.17249841	      1.15652501	     -0.25566570	      0.00000000	      0.50000000	      0.00000000	      0.25000000	     92.93261562	     -4.00743967	     -3.31787466	    111.24958210	      1.94167150	     -9.77920509	    -12.38790265	      0.00000000	      0.00000000	     36.80704313	     -9.47607140	     -4.83753574	     35.02589695	      0.61131723	      6.41770718	     -1.37694203	      0.00000000	      0.00000000	    -64.83231668	      7.25648296	     10.80657332	     89.77056360	    -12.36995049	     27.68755008	     61.29888483	     27.93630143	      0.00000000	      0.00000000	     89.37886922	    -14.33048632	     31.07258194	     53.80109522	     30.55813835	      0.00000000	      0.00000000
      5.01500000	    -16.42482923	     -4.38435935	     -3.48896816	      0.17215808	      1.15746825	     -0.25575672	      0.00000000	      0.50000000	      0.00000000	      0.25000000	     93.60607437	     -3.59006126	     -3.26628435	    110.33913770	      1.92578125	     -9.32941413	    -12.05860536	      0.00000000	      0.00000000	     37.11977292	     -9.83285771	     -5.39743663	     36.15077071	      0.63094998	      6.54038555	     -1.17706683	      0.00000000	      0.00000000	    -64.70916574	      7.22359985	     10.93520097	     89.77852543	    -12.14843310	     27.67090459	     61.62073051	     27.95008439	      0.00000000	      0.00000000	     89.38567552	    -14.68090782	     31.02967078	     53.85269480	     30.58534482	      0.00000000	      0.00000000
      5.02000000	    -16.84813031	     -4.43099500	     -3.85151792	      0.17173215	      1.15836720	     -0.25579011	      0.00000000	      0.50000000	      0.00000000	      0.25000000	     94.14625869	     -3.27736077	     -3.40921899	    109.28816259	      1.90743827	     -8.77547197	    -11.61897103	      0.00000000	      0.00000000	     37.62157917	    -10.28825389	     -5.80580139	     37.51746638	      0.65480332	      6.66534660	     -0.94041755	      0.00000000	      0.00000000	    -64.62756592	      7.23429391	     11.10816027	     89.78718946	    -11.88060801	     27.63977571	     61.96896925	     27.95962990	      0.00000000	      0.00000000	     89.39511334	    -15.12736164	     30.97651184	     54.01475291	     30.63353830	      0.00000000	      0.00000000
      5.02500000	    -17.31616267	     -4.37060695	     -4.22798746	      0.17109435	      1.15924433	     -0.25580822	      0.00000000	      0.50000000	      0.00000000	      0.25000000	     94.59389136	     -2.84113687	     -3.38772722	    108.08201383	      1.88638700	     -8.09983209	    -11.25754942	      0.00000000	      0.00000000	     38.28192655	    -10.62493089	     -6.10927828	     39.04566050	      0.68147533	      6.78382914	     -0.85491081	      0.00000000	      0.00000000	    -64.48685926	      7.18759023	     11.18737786	     89.79511759	    -11.55928596	     27.57165899	     62.36594762	     27.97060952	      0.00000000	      0.00000000	     89.39842838	    -15.66561705	     30.91753817	     54.25505885	     30.69616917	      0.00000000	      0.00000000
      5.03000000	    -17.96141715	     -4.47520927	     -4.53446172	      0.17030023	      1.15966615	     -0.25585249	      0.00000000	      0.50000000	      0.00000000	      0.25000000	     95.03103853	     -2.42684410	     -3.50823416	    106.72318723	      1.86267101	     -7.21034008	    -10.58871474	      0.00000000	      0.00000000	     39.34837209	    -11.10284332	     -6.10449835	     40.88010731	      0.71349247	      7.07371691	     -0.44404977	      0.00000000	      0.00000000	    -64.28205613	      7.31294734	     11.26415692	     89.80256898	    -11.04163373	     27.32888199	     62.86498123	     27.87839676	      0.00000000	      0.00000000	     89.37332641	    -16.67267147	     31.11824118	     55.10941952	     30.93362813	      0.00000000	      0.00000000
      5.03500000	    -18.51244844	     -4.41626304	     -4.90768888	      0.16951676	      1.16038214	     -0.25573160	      0.00000000	      0.50000000	      0.00000000	      0.25000000	     95.21657777	     -1.96369716	     -3.51821554	    105.22218613	      1.83647359	     -6.20014825	    -10.16763050	      0.00000000	      0.00000000	     40.37868655	    -11.48215842	     -6.28231649	     42.81758277	      0.74730780	      7.11886206	     -0.57851412	      0.00000000	      0.00000000	    -64.14613646	      7.21562745	     11.07056227	     89.80993752	    -10.43748952	     27.06298346	     63.27875272	     27.66583286	      0.00000000	      0.00000000	     89.37050889	    -17.86292060	     31.44419787	     56.08041624	     31.23518348	      0.00000000	      0.00000000
      5.04000000	    -18.98135574	     -4.21188896	     -5.31537062	      0.16879703	      1.16110498	     -0.25518531	      0.00000000	      0.50000000	      0.00000000	      0.25000000	     95.25782678	     -1.36650305	     -3.33435322	    103.65638698	      1.80914524	     -5.31824971	     -9.93449149	      0.00000000	      0.00000000	     41.37324053	    -11.73495421	     -6.36076959	     44.83381109	      0.78249762	      6.91834258	     -0.95197920	      0.00000000	      0.00000000	    -63.99520850	      6.95076328	     11.00846070	     89.81606937	    -10.09779971	     27.00659766	     63.62172187	     27.62327666	      0.00000000	      0.00000000	     89.38989197	    -18.50526765	     31.40433862	     56.41603019	     31.32661036	      0.00000000	      0.00000000
      5.04500000	    -19.50952669	     -4.12132097	     -5.54035498	      0.16799873	      1.16146394	     -0.25497342	      0.00000000	      0.50000000	      0.00000000	      0.25000000	     95.18127181	     -0.99802902	     -3.26239184	    101.99746162	      1.78019153	     -4.18076689	     -9.36461822	      0.00000000	      0.00000000	     42.67093300	    -11.99297469	     -6.17119768	     47.13958721	      0.82274100	      6.83669231	     -1.05209609	      0.00000000	      0.00000000	    -63.83894143	      6.90424563	     10.79916511	     89.82140083	     -9.61508112	     26.89712627	     64.02226149	     27.50197634	      0.00000000	      0.00000000	     89.38412070	    -19.52573944	     31.49462523	     57.33441088	     31.55931261	      0.00000000	      0.00000000
      5.05000000	    -19.84634949	     -3.90718950	     -5.79802608	      0.16738126	      1.16225249	     -0.25465835	      0.00000000	      0.50000000	      0.00000000	      0.25000000	     94.76882332	     -0.59891464	     -3.10868764	    100.24542131	      1.74961266	     -2.96316405	     -9.23470623	      0.00000000	      0.00000000	     43.77121432	    -12.16700998	     -6.15918307	     49.43912085	      0.86287544	      6.57711524	     -1.50044619	      0.00000000	      0.00000000	    -63.80985897	      6.67917939	     10.53425381	     89.82705823	     -9.32297097	     26.81808034	     64.35414162	     27.47359474	      0.00000000	      0.00000000	     89.42286078	    -20.16567842	     31.40087469	     57.74007003	     31.64987654	      0.00000000	      0.00000000
